<?xml version="1.0" standalone="no"?>
<!DOCTYPE svg PUBLIC "-//W3C//DTD SVG 20010904//EN"
 "http://www.w3.org/TR/2001/REC-SVG-20010904/DTD/svg10.dtd">
<svg version="1.0" xmlns="http://www.w3.org/2000/svg"
 width="128.000000pt" height="128.000000pt" viewBox="0 0 128.000000 128.000000"
 preserveAspectRatio="xMidYMid meet">
<metadata>
Created by potrace 1.14, written by Peter Selinger 2001-2017
</metadata>
<g transform="translate(0.000000,128.000000) scale(0.100000,-0.100000)"
fill="#000000" stroke="none">
<path d="M690 1217 c65 -20 178 -82 168 -93 -2 -2 -26 3 -53 11 -96 29 -276
24 -357 -10 -29 -12 -21 1 15 25 28 18 29 20 7 15 -167 -45 -311 -162 -360
-292 -25 -68 -30 -96 -30 -168 -1 -91 7 -130 44 -240 15 -42 -29 43 -51 100
l-23 60 5 -63 c13 -146 75 -253 235 -406 103 -97 144 -117 208 -98 21 7 48 22
60 34 23 25 50 85 46 106 -1 6 -2 24 -3 38 -2 44 -57 88 -145 115 -154 47
-226 150 -227 326 0 76 34 180 81 243 18 25 30 36 25 25 -11 -31 -24 -89 -20
-93 2 -2 9 7 16 20 18 35 88 97 144 129 70 40 148 61 230 61 186 1 318 -91
383 -265 31 -83 27 -100 -8 -31 -39 79 -78 124 -144 168 -76 50 -101 57 -41
11 28 -21 56 -46 63 -54 38 -47 64 -97 80 -158 58 -215 -64 -421 -293 -493
-63 -20 -62 -28 2 -18 72 10 148 34 191 58 48 29 39 8 -21 -47 -48 -44 -168
-113 -195 -113 -6 0 -13 -4 -16 -9 -8 -12 69 4 137 27 73 26 150 78 212 144
28 29 39 43 25 32 -46 -38 -50 -36 -19 11 72 106 118 264 115 391 0 35 0 64 1
64 2 0 9 -15 17 -32 13 -29 14 -30 15 -9 1 13 -6 51 -15 85 -57 222 -252 386
-477 401 l-72 5 45 -13z"/>
</g>
</svg>
